<?xml version="1.0" encoding="UTF-8"?>
<svg id="Capa_1" data-name="Capa 1" xmlns="http://www.w3.org/2000/svg" viewBox="0 0 463 360.22">
  <defs>
    <style>
      .cls-1 {
        fill: #322a85;
      }
    </style>
  </defs>
  <path class="cls-1" d="m133.75,116.59c-4.04-5.84-10.84-17.38-12.83-33.42-1.36-10.95,0-20.1,1.43-26.16,7.05-1.68,18.51-3.44,32.23-1.15,20.43,3.41,34.16,13.85,40.13,19.03-.4-9.7.13-30.59,12.69-51.86,6.24-10.56,13.57-18.06,19.4-23.03,6.98,4.89,18.15,14.05,27.35,28.96,10.56,17.12,13.34,33.4,14.21,42.2,7.72-5.32,21.02-12.92,39.06-16.05,9.84-1.71,18.51-1.65,25.3-1.05.26.51.63,1.27,1.01,2.21,2.13,5.16,3.14,11.51,1.52,22.07-1.93,12.52-6.17,21.91-7.53,24.79-3.18,6.76-8.89,16.83-18.9,27.07,5.34,1.41,16.22,5.09,25.93,14.89,6.25,6.32,9.75,12.89,11.68,17.38-4.15,4.41-10.25,10.23-18.48,15.91-8.9,6.15-21.42,13.85-34.02,15.63-18.78,2.65-33.41-3.68-38.62-6.01-17.49-7.84-31.2-22.67-34.12-25.7-4.73-4.9-6.45-7.4-11.48-11.14-10.13-7.53-20.14-10-24.84-11.1-11.82-2.79-22.01-2.08-28.67-1.03-4.65.57-11.55,2.01-19.02,5.91-10.66,5.57-16.94,13.29-19.96,17.63,3.58,4.95,14.95,19.27,35.49,25.19,28.66,8.26,52.11-6.48,55.72-8.83,1.22-.52,2.59-.15,3.26.78.82,1.15.47,2.99-.97,3.86-5.53,3.64-14.95,8.85-27.72,11.45-14.19,2.88-23.54.71-31.4-1.75-6.27-1.96-15.56-5.12-24.04-11.91-8.12-6.5-13.78-13.26-17.52-18.48.67-1.37,1.7-3.32,3.17-5.52,10.65-15.85,28.72-20.7,37.38-23.03,6.3-1.7,15.93-3.53,28-2.9,5.13.82,12.56,2.52,20.69,6.48,8.95,4.36,14.43,9.36,19.17,13.52,21.75,19.08,25.84,23.06,37.31,29.1,6.63,3.49,10.49,5.52,16.5,6.81,0,0,19.22,5.14,50.91-14.04.11-.07,1.5-.89,4.14-2.7,6.26-4.3,7.43-5.38,8.87-7.4.6-.84.95-2.01.88-3.63-.18-4.24-8.94-12.84-21.16-19.85-6.63-3.8-13.14-4.7-17.18-3.46-9.55,2.94-18.51,7.54-27.77,11.31-1.92-.26-3.44-1.6-3.82-3.31-.39-1.79.66-3.22.83-3.45,10.72-4.34,25.15-9.39,38.2-21.1,10.03-8.3,14.22-15.5,15.35-18.2,4.25-10.15,6.68-17.97,6.39-19.88,1.22-9.28.1-16.81-1.13-21.28-6.34-.65-21.21-1.32-36.89,6.41-11.34,5.59-19.72,11.79-22.34,17.93-2.47,5.78-4.27,12.49-7.31,19.31-5.36,12-11.42,22.01-17.1,30.07-1.34.55-2.85.2-3.72-.83-1.08-1.28-.59-2.93-.55-3.03,3.21-3.84,26.98-33.3,18.89-72.41-5.95-28.78-25.51-45.14-31.31-49.65-5.11,4.6-15.83,15.5-21.52,33.24-6.12,19.09-2.93,35.29-1.24,41.93,3.68,8.55,7.36,17.1,11.03,25.65-.12.35-.57,1.58-1.79,2.21-1.47.75-3.45.34-4.83-1.1-2.98-6.41-7.53-14.5-14.48-22.76-4.8-5.7-9.67-10.16-13.93-13.65-4.62-3.79-14.79-8.37-27.03-10.76-9.6-1.87-17.86-1.62-23.72-.97-.93,5.39-1.59,12.89-.41,21.65,1.78,13.32,6.95,23.21,10.48,28.82.02.17.25,2.1-1.24,3.45-1.07.97-2.62,1.25-4,.74Z"/>
  <g>
    <path class="cls-1" d="m11.29,317.04v-7.99l55.35-68.63,1.29,4.58H12.11v-10.22h66.4v7.99l-55.12,68.63-1.41-4.58h58.05v10.22H11.29Z"/>
    <path class="cls-1" d="m107.54,306.82h47.95v10.22h-59.7v-82.26h58.05v10.22h-46.3v61.81Zm-1.06-36.55h42.31v9.99h-42.31v-9.99Z"/>
    <path class="cls-1" d="m174.52,317.04v-82.26h9.64l54.41,67.57h-5.05v-67.57h11.75v82.26h-9.64l-54.41-67.57h5.05v67.57h-11.75Z"/>
    <path class="cls-1" d="m269.94,317.04v-82.26h11.75v82.26h-11.75Z"/>
    <path class="cls-1" d="m318.12,317.04h-11.75v-82.26h58.05v10.22h-46.3v72.04Zm-1.17-43.36h42.42v10.11h-42.42v-10.11Z"/>
    <path class="cls-1" d="m400.86,317.04v-31.49l2.7,7.29-35.37-58.05h12.57l29.73,49h-6.82l29.85-49h11.63l-35.25,58.05,2.59-7.29v31.49h-11.63Z"/>
    <polygon class="cls-1" points="261.92 275.91 269.94 282.39 269.94 271.57 261.92 275.91"/>
    <polygon class="cls-1" points="298.35 277.66 306.37 284.14 306.37 273.32 298.35 277.66"/>
    <polygon class="cls-1" points="253.29 277.19 245.27 270.71 245.27 281.53 253.29 277.19"/>
    <polygon class="cls-1" points="167.13 275.05 175.16 281.53 175.16 270.71 167.13 275.05"/>
    <polygon class="cls-1" points="87.76 274.2 95.79 280.68 95.79 269.85 87.76 274.2"/>
  </g>
</svg>